<svg width="4297" height="1044" viewBox="0 0 4297 1044" fill="none" xmlns="http://www.w3.org/2000/svg">
<path d="M4229.36 747.817C4266.01 747.817 4295.71 718.111 4295.71 681.468C4295.71 644.824 4266.01 615.119 4229.36 615.119C4192.72 615.119 4163.01 644.824 4163.01 681.468C4163.01 718.111 4192.72 747.817 4229.36 747.817Z" stroke="#2C262F" stroke-width="1.35" stroke-miterlimit="10"/>
<path d="M4199.45 646.075H4233.23C4239.5 645.607 4245.74 647.395 4250.81 651.117C4252.78 652.876 4254.32 655.055 4255.33 657.493C4256.35 659.931 4256.8 662.565 4256.66 665.2C4256.75 668.066 4256.24 670.919 4255.14 673.569C4254.35 675.536 4253.21 677.345 4251.78 678.914C4250.67 680.13 4249.35 681.132 4247.88 681.871C4246.57 682.443 4245.63 682.846 4245.06 683.048V683.249C4246.22 683.426 4247.35 683.754 4248.42 684.224C4249.71 684.82 4250.86 685.692 4251.78 686.779C4252.95 688.087 4253.84 689.619 4254.4 691.283C4255.16 693.509 4255.52 695.855 4255.45 698.206C4255.43 702.014 4255.74 705.815 4256.39 709.567C4256.71 712.213 4257.71 714.728 4259.31 716.861H4245.87C4244.93 715.322 4244.36 713.583 4244.22 711.785C4244.22 709.937 4243.98 708.155 4243.98 706.441C4244.02 703.639 4243.81 700.84 4243.38 698.072C4243.09 695.986 4242.34 693.989 4241.19 692.224C4240.13 690.697 4238.63 689.526 4236.89 688.862C4234.65 688.064 4232.28 687.699 4229.9 687.787H4211.65V716.928H4199.28L4199.45 646.075ZM4211.82 678.275H4231.98C4235.24 678.508 4238.46 677.499 4240.99 675.452C4242.08 674.34 4242.92 673.01 4243.45 671.549C4243.98 670.089 4244.2 668.532 4244.09 666.982C4244.15 665.093 4243.81 663.212 4243.08 661.469C4242.5 660.117 4241.56 658.952 4240.35 658.108C4239.16 657.305 4237.81 656.766 4236.39 656.528C4234.87 656.256 4233.33 656.121 4231.78 656.125H4211.62L4211.82 678.275Z" fill="#2C262F"/>
<path d="M1029.05 301.292C1081.33 248.679 1144.33 222.373 1218.05 222.373C1291.77 222.373 1354.79 248.679 1407.09 301.292C1459.32 353.972 1485.45 416.982 1485.47 490.322V519.228C1485.37 534.156 1483.89 549.042 1481.03 563.696H1100.74C1109.28 587.692 1125.26 608.334 1146.35 622.616C1169.66 638.661 1197.69 646.392 1225.93 644.562C1254.17 642.733 1280.97 631.451 1302.01 612.533L1443.19 663.656C1419.04 701.157 1385.99 732.103 1346.99 753.734C1307.82 775.834 1263.56 787.327 1218.59 787.076C1144.44 787.076 1081.25 760.77 1029.01 708.157C976.779 655.544 950.651 592.534 950.629 519.127V490.221C950.651 416.926 976.791 353.95 1029.05 301.292ZM1100.74 445.821H1335.36C1326.81 421.828 1310.85 401.18 1289.78 386.867C1268.66 372.396 1243.67 364.652 1218.07 364.652C1192.47 364.652 1167.47 372.396 1146.35 386.867C1125.26 401.176 1109.28 421.84 1100.74 445.854V445.821Z" fill="#2C262F"/>
<path d="M1625 301.292C1677.25 248.679 1740.26 222.373 1814.03 222.373C1887.8 222.373 1950.8 248.679 2003.04 301.292C2055.31 353.972 2081.45 416.982 2081.45 490.322V519.228C2081.36 534.158 2079.86 549.046 2076.98 563.696H1696.73C1705.25 587.689 1721.22 608.333 1742.3 622.616C1763.49 637.366 1788.75 645.143 1814.57 644.867C1845.43 644.977 1875.2 633.47 1897.96 612.634L2039.14 663.756C2015.01 701.264 1981.97 732.212 1942.97 753.835C1903.79 775.935 1859.52 787.428 1814.54 787.177C1740.41 787.177 1677.22 760.871 1624.96 708.258C1572.71 655.645 1546.58 592.635 1546.58 519.228V490.322C1546.6 416.96 1572.74 353.95 1625 301.292ZM1696.73 445.821H1931.34C1922.76 421.827 1906.76 401.189 1885.66 386.9C1864.54 372.427 1839.54 364.681 1813.93 364.681C1788.33 364.681 1763.32 372.427 1742.2 386.9C1721.16 401.221 1705.24 421.87 1696.73 445.854V445.821Z" fill="#2C262F"/>
<path d="M2410.56 644.866C2438.41 644.902 2465.48 635.616 2487.44 618.488C2509.41 601.36 2525.01 577.374 2531.76 550.351L2665.17 600.399C2648 654.341 2614.13 701.425 2568.43 734.844C2523.02 769.282 2467.45 787.665 2410.46 787.109C2336.31 787.109 2273.11 760.803 2220.88 708.19C2168.65 655.577 2142.52 592.567 2142.5 519.16V490.254C2142.5 416.87 2168.62 353.86 2220.88 301.225C2273.14 248.589 2336.33 222.283 2410.46 222.305C2467.45 221.749 2523.02 240.133 2568.43 274.571C2614.13 307.989 2648 355.074 2665.17 409.016L2531.76 459.063C2525.27 431.955 2509.78 407.845 2487.83 390.664C2466.05 372.805 2438.69 363.168 2410.52 363.439C2393.32 363.334 2376.29 366.766 2360.47 373.522C2345.44 379.812 2331.84 389.072 2320.47 400.748C2309.16 412.515 2300.11 426.268 2293.79 441.316C2287.11 456.766 2283.68 473.423 2283.7 490.254V519.16C2283.43 535.753 2286.6 552.222 2293.01 567.529C2299.42 582.836 2308.93 596.649 2320.95 608.096C2332.61 619.973 2346.57 629.356 2361.98 635.677C2377.38 641.997 2393.91 645.124 2410.56 644.866Z" fill="#2C262F"/>
<path d="M2886.44 773.833H2745.27V0H2886.44V773.833Z" fill="#2C262F"/>
<path d="M3241.12 222.372C3288.22 222.094 3334.52 234.58 3375.1 258.504C3415.65 282.106 3449.27 315.961 3472.59 356.67C3495.92 397.378 3508.12 443.506 3507.97 490.422V773.933H3366.8V490.321C3366.26 457.209 3352.72 425.636 3329.12 402.411C3305.51 379.186 3273.72 366.17 3240.6 366.17C3207.48 366.17 3175.69 379.186 3152.08 402.411C3128.48 425.636 3114.94 457.209 3114.4 490.321V519.227C3114.13 535.819 3117.3 552.289 3123.71 567.596C3130.12 582.903 3139.63 596.715 3151.64 608.162C3163.31 620.014 3177.25 629.378 3192.64 635.687C3208.02 641.996 3224.53 645.118 3241.15 644.866C3260.12 644.737 3278.79 640.13 3295.64 631.421V780.42C3277.82 784.883 3259.52 787.14 3241.15 787.142C3167.01 787.142 3103.81 760.836 3051.58 708.223C2999.35 655.61 2973.22 592.6 2973.2 519.193V490.287C2973.2 416.903 2999.32 353.893 3051.58 301.257C3103.84 248.622 3167.02 222.327 3241.12 222.372Z" fill="#2C262F"/>
<path d="M3863.76 222.372C3910.86 222.091 3957.16 234.577 3997.74 258.504C4038.29 282.106 4071.91 315.961 4095.23 356.67C4118.56 397.378 4130.76 443.506 4130.61 490.422V519.327C4130.61 592.712 4104.48 655.722 4052.22 708.357C3999.97 760.993 3937.15 787.265 3863.76 787.176C3819.45 787.4 3775.82 776.305 3737.01 754.943V1044H3595.83V490.321C3595.83 416.936 3621.96 353.926 3674.22 301.291C3726.47 248.656 3789.65 222.349 3863.76 222.372ZM3989.4 519.227V490.321C3989.3 456.929 3976.06 424.917 3952.55 401.202C3929.05 377.486 3897.15 363.97 3863.76 363.573C3846.57 363.468 3829.55 366.901 3813.74 373.656C3798.71 379.953 3785.09 389.212 3773.71 400.881C3762.4 412.649 3753.35 426.402 3747.02 441.45C3740.36 456.905 3736.93 473.559 3736.94 490.388V519.294C3736.66 535.89 3739.83 552.363 3746.25 567.671C3752.67 582.979 3762.19 596.79 3774.22 608.229C3797.85 631.735 3829.82 644.929 3863.15 644.929C3896.49 644.929 3928.46 631.735 3952.09 608.229C3964.13 596.781 3973.66 582.96 3980.08 567.64C3986.5 552.321 3989.68 535.836 3989.4 519.227Z" fill="#2C262F"/>
<path d="M729.392 235.717V594.92C729.526 601.576 728.257 608.184 725.669 614.317C723.08 620.449 719.229 625.968 714.367 630.515C704.624 639.791 691.686 644.964 678.234 644.964C664.781 644.964 651.843 639.791 642.1 630.515C637.249 625.962 633.408 620.441 630.826 614.309C628.243 608.178 626.977 601.572 627.109 594.92V414.697C627.109 362.106 608.387 316.899 570.942 279.075C553.451 260.805 532.378 246.339 509.042 236.583C485.705 226.827 460.607 221.989 435.316 222.373C410.026 221.969 384.925 226.788 361.583 236.527C338.241 246.266 317.159 260.717 299.656 278.974C262.211 316.866 243.489 362.106 243.489 414.697V594.92C243.624 601.552 242.365 608.137 239.794 614.251C237.224 620.365 233.398 625.871 228.565 630.414C218.822 639.69 205.885 644.864 192.432 644.864C178.979 644.864 166.041 639.69 156.298 630.414C151.431 625.888 147.569 620.389 144.963 614.275C142.357 608.16 141.066 601.566 141.173 594.92V319.308H0V592.837C0 647.69 18.7222 692.897 56.1665 730.643C73.6677 748.889 94.746 763.328 118.083 773.056C141.42 782.783 166.513 787.591 191.793 787.177C244.811 787.177 290.211 768.276 327.991 730.475C365.772 692.673 384.673 647.489 384.695 594.92V414.697C384.74 401.146 390.145 388.163 399.73 378.585C409.316 369.006 422.302 363.609 435.854 363.574C442.508 363.444 449.116 364.715 455.248 367.303C461.38 369.891 466.9 373.74 471.449 378.598C476.128 383.359 479.815 389.001 482.296 395.198C484.777 401.395 486.003 408.023 485.903 414.697V594.92C485.903 647.556 504.804 692.774 542.607 730.576C580.41 768.377 625.865 787.244 678.973 787.177C704.269 787.562 729.373 782.724 752.715 772.968C776.057 763.212 797.135 748.746 814.633 730.475C851.921 692.673 870.564 647.489 870.564 594.92V235.717H729.392Z" fill="#2C262F"/>
</svg>
